<?xml version='1.0' encoding='utf-8' ?>
<!DOCTYPE svg PUBLIC "-//W3C//DTD SVG 1.1//EN" "http://www.w3.org/Graphics/SVG/1.1/DTD/svg11.dtd">
<svg height='16' viewBox='0 0 16 16' width='16' xmlns:xlink='http://www.w3.org/1999/xlink' xmlns="http://www.w3.org/2000/svg">
  <script xlink:href="scaler.js" /> 
  <style type="text/css">
    <![CDATA[
      path {
        stroke: none;
        fill: black;
      }
    ]]>
  </style>
  <path d="M 5,1 a 3,3 1 0 0 0,6 h 6 a 3,3 1 0 0 0,-6z
             M 11,2 a 2,2 1 0 1 0,4 a 2,2 1 0 1 0,-4z
           M 5,9 a 3,3 1 0 0 0,6 h 6 a 3,3 1 0 0 0,-6z
             M 5,10 a 2,2 1 0 1 0,4 a 2,2 1 0 1 0,-4z
             M 11,10 a 2,2 1 0 1 0,4
             h -3.75 a 3,3 0 0 0 0,-4z"/>
</svg>
